<mxfile host="65bd71144e">
    <diagram id="oqkY_fCM3BNtAnvKTk25" name="Standard">
        <mxGraphModel dx="1374" dy="782" grid="0" gridSize="10" guides="1" tooltips="1" connect="1" arrows="1" fold="1" page="1" pageScale="1" pageWidth="827" pageHeight="1169" math="0" shadow="0">
            <root>
                <mxCell id="0"/>
                <mxCell id="1" parent="0"/>
                <mxCell id="11" style="edgeStyle=none;sketch=1;html=1;exitX=1;exitY=0.5;exitDx=0;exitDy=0;entryX=0;entryY=0.5;entryDx=0;entryDy=0;endArrow=open;endFill=0;" parent="1" source="2" target="5" edge="1">
                    <mxGeometry relative="1" as="geometry"/>
                </mxCell>
                <mxCell id="2" value="Client" style="html=1;sketch=1;fontStyle=1" parent="1" vertex="1">
                    <mxGeometry x="150" y="240" width="110" height="50" as="geometry"/>
                </mxCell>
                <mxCell id="5" value="«interface»&#10;Client Interface" style="swimlane;fontStyle=1;align=center;verticalAlign=top;childLayout=stackLayout;horizontal=1;startSize=40;horizontalStack=0;resizeParent=1;resizeParentMax=0;resizeLast=0;collapsible=1;marginBottom=0;sketch=1;" parent="1" vertex="1">
                    <mxGeometry x="334" y="232" width="160" height="66" as="geometry"/>
                </mxCell>
                <mxCell id="8" value="+ method(data)" style="text;strokeColor=none;fillColor=none;align=left;verticalAlign=top;spacingLeft=4;spacingRight=4;overflow=hidden;rotatable=0;points=[[0,0.5],[1,0.5]];portConstraint=eastwest;sketch=1;" parent="5" vertex="1">
                    <mxGeometry y="40" width="160" height="26" as="geometry"/>
                </mxCell>
                <mxCell id="16" style="edgeStyle=none;sketch=1;html=1;exitX=0.5;exitY=0;exitDx=0;exitDy=0;entryX=0.481;entryY=1.022;entryDx=0;entryDy=0;entryPerimeter=0;endArrow=block;endFill=0;startArrow=none;startFill=0;dashed=1;" parent="1" source="12" target="8" edge="1">
                    <mxGeometry relative="1" as="geometry"/>
                </mxCell>
                <mxCell id="12" value="Adapter" style="swimlane;fontStyle=1;align=center;verticalAlign=top;childLayout=stackLayout;horizontal=1;startSize=26;horizontalStack=0;resizeParent=1;resizeParentMax=0;resizeLast=0;collapsible=1;marginBottom=0;sketch=1;" parent="1" vertex="1">
                    <mxGeometry x="331" y="363" width="160" height="86" as="geometry"/>
                </mxCell>
                <mxCell id="13" value="- adaptee: Service" style="text;strokeColor=none;fillColor=none;align=left;verticalAlign=top;spacingLeft=4;spacingRight=4;overflow=hidden;rotatable=0;points=[[0,0.5],[1,0.5]];portConstraint=eastwest;sketch=1;" parent="12" vertex="1">
                    <mxGeometry y="26" width="160" height="26" as="geometry"/>
                </mxCell>
                <mxCell id="14" value="" style="line;strokeWidth=1;fillColor=none;align=left;verticalAlign=middle;spacingTop=-1;spacingLeft=3;spacingRight=3;rotatable=0;labelPosition=right;points=[];portConstraint=eastwest;sketch=1;" parent="12" vertex="1">
                    <mxGeometry y="52" width="160" height="8" as="geometry"/>
                </mxCell>
                <mxCell id="15" value="+ method(data)" style="text;strokeColor=none;fillColor=none;align=left;verticalAlign=top;spacingLeft=4;spacingRight=4;overflow=hidden;rotatable=0;points=[[0,0.5],[1,0.5]];portConstraint=eastwest;sketch=1;" parent="12" vertex="1">
                    <mxGeometry y="60" width="160" height="26" as="geometry"/>
                </mxCell>
                <mxCell id="17" value="Service" style="swimlane;fontStyle=1;align=center;verticalAlign=top;childLayout=stackLayout;horizontal=1;startSize=26;horizontalStack=0;resizeParent=1;resizeParentMax=0;resizeLast=0;collapsible=1;marginBottom=0;sketch=1;" parent="1" vertex="1">
                    <mxGeometry x="554" y="363" width="191" height="86" as="geometry"/>
                </mxCell>
                <mxCell id="18" value="..." style="text;strokeColor=none;fillColor=none;align=left;verticalAlign=top;spacingLeft=4;spacingRight=4;overflow=hidden;rotatable=0;points=[[0,0.5],[1,0.5]];portConstraint=eastwest;sketch=1;" parent="17" vertex="1">
                    <mxGeometry y="26" width="191" height="26" as="geometry"/>
                </mxCell>
                <mxCell id="19" value="" style="line;strokeWidth=1;fillColor=none;align=left;verticalAlign=middle;spacingTop=-1;spacingLeft=3;spacingRight=3;rotatable=0;labelPosition=right;points=[];portConstraint=eastwest;sketch=1;" parent="17" vertex="1">
                    <mxGeometry y="52" width="191" height="8" as="geometry"/>
                </mxCell>
                <mxCell id="20" value="+ serviceMethod(specialData)" style="text;strokeColor=none;fillColor=none;align=left;verticalAlign=top;spacingLeft=4;spacingRight=4;overflow=hidden;rotatable=0;points=[[0,0.5],[1,0.5]];portConstraint=eastwest;sketch=1;" parent="17" vertex="1">
                    <mxGeometry y="60" width="191" height="26" as="geometry"/>
                </mxCell>
                <mxCell id="22" style="edgeStyle=none;sketch=1;html=1;exitX=1;exitY=0.5;exitDx=0;exitDy=0;entryX=0;entryY=0.5;entryDx=0;entryDy=0;startArrow=diamondThin;startFill=0;endArrow=open;endFill=0;" parent="1" source="13" target="18" edge="1">
                    <mxGeometry relative="1" as="geometry"/>
                </mxCell>
                <mxCell id="24" value="specialData = convertToServiceFormat(data)&lt;br&gt;return adaptee.serviceMethod(specialData)" style="whiteSpace=wrap;html=1;rounded=1;arcSize=50;align=left;verticalAlign=middle;strokeWidth=1;autosize=1;spacing=10;treeFolding=1;treeMoving=1;newEdgeStyle={&quot;edgeStyle&quot;:&quot;entityRelationEdgeStyle&quot;,&quot;startArrow&quot;:&quot;none&quot;,&quot;endArrow&quot;:&quot;none&quot;,&quot;segment&quot;:10,&quot;curved&quot;:1};sketch=1;" parent="1" vertex="1">
                    <mxGeometry x="35" y="519" width="285" height="52" as="geometry"/>
                </mxCell>
                <mxCell id="25" value="" style="edgeStyle=entityRelationEdgeStyle;startArrow=none;endArrow=none;segment=10;curved=1;sketch=1;exitX=0;exitY=0.5;exitDx=0;exitDy=0;" parent="1" source="15" target="24" edge="1">
                    <mxGeometry relative="1" as="geometry">
                        <mxPoint x="310" y="551" as="sourcePoint"/>
                    </mxGeometry>
                </mxCell>
            </root>
        </mxGraphModel>
    </diagram>
    <diagram id="ZMtFNecaEUitxVPVxPli" name="Practice">
        <mxGraphModel dx="705" dy="401" grid="0" gridSize="10" guides="1" tooltips="1" connect="1" arrows="1" fold="1" page="1" pageScale="1" pageWidth="827" pageHeight="1169" math="0" shadow="0">
            <root>
                <mxCell id="zX09XY9HpGyqSqZ4T9dv-0"/>
                <mxCell id="zX09XY9HpGyqSqZ4T9dv-1" parent="zX09XY9HpGyqSqZ4T9dv-0"/>
                <mxCell id="zX09XY9HpGyqSqZ4T9dv-2" value="Cartridge556" style="swimlane;fontStyle=1;align=center;verticalAlign=top;childLayout=stackLayout;horizontal=1;startSize=26;horizontalStack=0;resizeParent=1;resizeParentMax=0;resizeLast=0;collapsible=1;marginBottom=0;sketch=1;" parent="zX09XY9HpGyqSqZ4T9dv-1" vertex="1">
                    <mxGeometry x="436" y="316" width="173" height="112" as="geometry"/>
                </mxCell>
                <mxCell id="zX09XY9HpGyqSqZ4T9dv-3" value="- damage: number" style="text;strokeColor=none;fillColor=none;align=left;verticalAlign=top;spacingLeft=4;spacingRight=4;overflow=hidden;rotatable=0;points=[[0,0.5],[1,0.5]];portConstraint=eastwest;sketch=1;" parent="zX09XY9HpGyqSqZ4T9dv-2" vertex="1">
                    <mxGeometry y="26" width="173" height="26" as="geometry"/>
                </mxCell>
                <mxCell id="zX09XY9HpGyqSqZ4T9dv-4" value="" style="line;strokeWidth=1;fillColor=none;align=left;verticalAlign=middle;spacingTop=-1;spacingLeft=3;spacingRight=3;rotatable=0;labelPosition=right;points=[];portConstraint=eastwest;sketch=1;" parent="zX09XY9HpGyqSqZ4T9dv-2" vertex="1">
                    <mxGeometry y="52" width="173" height="8" as="geometry"/>
                </mxCell>
                <mxCell id="IeATak3uWCZ_7LjqJvaZ-0" value="+ Cartridge556(dmg: number)" style="text;strokeColor=none;fillColor=none;align=left;verticalAlign=top;spacingLeft=4;spacingRight=4;overflow=hidden;rotatable=0;points=[[0,0.5],[1,0.5]];portConstraint=eastwest;sketch=1;" vertex="1" parent="zX09XY9HpGyqSqZ4T9dv-2">
                    <mxGeometry y="60" width="173" height="26" as="geometry"/>
                </mxCell>
                <mxCell id="zX09XY9HpGyqSqZ4T9dv-5" value="+ fireLowCaliber()" style="text;strokeColor=none;fillColor=none;align=left;verticalAlign=top;spacingLeft=4;spacingRight=4;overflow=hidden;rotatable=0;points=[[0,0.5],[1,0.5]];portConstraint=eastwest;sketch=1;" parent="zX09XY9HpGyqSqZ4T9dv-2" vertex="1">
                    <mxGeometry y="86" width="173" height="26" as="geometry"/>
                </mxCell>
                <mxCell id="zX09XY9HpGyqSqZ4T9dv-15" value="" style="edgeStyle=none;sketch=1;html=1;endArrow=block;endFill=0;dashed=1;" parent="zX09XY9HpGyqSqZ4T9dv-1" source="zX09XY9HpGyqSqZ4T9dv-6" target="zX09XY9HpGyqSqZ4T9dv-14" edge="1">
                    <mxGeometry relative="1" as="geometry"/>
                </mxCell>
                <mxCell id="zX09XY9HpGyqSqZ4T9dv-17" value="" style="edgeStyle=none;sketch=1;html=1;endArrow=open;endFill=0;entryX=0.006;entryY=0.662;entryDx=0;entryDy=0;entryPerimeter=0;startArrow=diamondThin;startFill=0;" parent="zX09XY9HpGyqSqZ4T9dv-1" source="zX09XY9HpGyqSqZ4T9dv-6" target="zX09XY9HpGyqSqZ4T9dv-3" edge="1">
                    <mxGeometry relative="1" as="geometry"/>
                </mxCell>
                <mxCell id="zX09XY9HpGyqSqZ4T9dv-6" value="Adapter" style="swimlane;fontStyle=1;align=center;verticalAlign=top;childLayout=stackLayout;horizontal=1;startSize=26;horizontalStack=0;resizeParent=1;resizeParentMax=0;resizeLast=0;collapsible=1;marginBottom=0;sketch=1;" parent="zX09XY9HpGyqSqZ4T9dv-1" vertex="1">
                    <mxGeometry x="186" y="303" width="160" height="112" as="geometry"/>
                </mxCell>
                <mxCell id="zX09XY9HpGyqSqZ4T9dv-7" value="- adaptee: Cartridge556" style="text;strokeColor=none;fillColor=none;align=left;verticalAlign=top;spacingLeft=4;spacingRight=4;overflow=hidden;rotatable=0;points=[[0,0.5],[1,0.5]];portConstraint=eastwest;sketch=1;" parent="zX09XY9HpGyqSqZ4T9dv-6" vertex="1">
                    <mxGeometry y="26" width="160" height="26" as="geometry"/>
                </mxCell>
                <mxCell id="zX09XY9HpGyqSqZ4T9dv-8" value="" style="line;strokeWidth=1;fillColor=none;align=left;verticalAlign=middle;spacingTop=-1;spacingLeft=3;spacingRight=3;rotatable=0;labelPosition=right;points=[];portConstraint=eastwest;sketch=1;" parent="zX09XY9HpGyqSqZ4T9dv-6" vertex="1">
                    <mxGeometry y="52" width="160" height="8" as="geometry"/>
                </mxCell>
                <mxCell id="IeATak3uWCZ_7LjqJvaZ-2" value="+ Adapter(c: Cartridge556)" style="text;strokeColor=none;fillColor=none;align=left;verticalAlign=top;spacingLeft=4;spacingRight=4;overflow=hidden;rotatable=0;points=[[0,0.5],[1,0.5]];portConstraint=eastwest;sketch=1;" vertex="1" parent="zX09XY9HpGyqSqZ4T9dv-6">
                    <mxGeometry y="60" width="160" height="26" as="geometry"/>
                </mxCell>
                <mxCell id="zX09XY9HpGyqSqZ4T9dv-9" value="+ fireHighCaliber()" style="text;strokeColor=none;fillColor=none;align=left;verticalAlign=top;spacingLeft=4;spacingRight=4;overflow=hidden;rotatable=0;points=[[0,0.5],[1,0.5]];portConstraint=eastwest;sketch=1;" parent="zX09XY9HpGyqSqZ4T9dv-6" vertex="1">
                    <mxGeometry y="86" width="160" height="26" as="geometry"/>
                </mxCell>
                <mxCell id="zX09XY9HpGyqSqZ4T9dv-11" value="«interface»&#10;HighCaliber" style="swimlane;fontStyle=1;align=center;verticalAlign=top;childLayout=stackLayout;horizontal=1;startSize=38;horizontalStack=0;resizeParent=1;resizeParentMax=0;resizeLast=0;collapsible=1;marginBottom=0;sketch=1;" parent="zX09XY9HpGyqSqZ4T9dv-1" vertex="1">
                    <mxGeometry x="186" y="147" width="160" height="64" as="geometry"/>
                </mxCell>
                <mxCell id="zX09XY9HpGyqSqZ4T9dv-14" value="+ fireHighCaliber()" style="text;strokeColor=none;fillColor=none;align=left;verticalAlign=top;spacingLeft=4;spacingRight=4;overflow=hidden;rotatable=0;points=[[0,0.5],[1,0.5]];portConstraint=eastwest;sketch=1;" parent="zX09XY9HpGyqSqZ4T9dv-11" vertex="1">
                    <mxGeometry y="38" width="160" height="26" as="geometry"/>
                </mxCell>
                <mxCell id="zX09XY9HpGyqSqZ4T9dv-22" value="" style="edgeStyle=none;sketch=1;html=1;startArrow=none;startFill=0;endArrow=block;endFill=0;dashed=1;" parent="zX09XY9HpGyqSqZ4T9dv-1" source="zX09XY9HpGyqSqZ4T9dv-18" target="zX09XY9HpGyqSqZ4T9dv-14" edge="1">
                    <mxGeometry relative="1" as="geometry"/>
                </mxCell>
                <mxCell id="zX09XY9HpGyqSqZ4T9dv-18" value="Cartridge762" style="swimlane;fontStyle=1;align=center;verticalAlign=top;childLayout=stackLayout;horizontal=1;startSize=26;horizontalStack=0;resizeParent=1;resizeParentMax=0;resizeLast=0;collapsible=1;marginBottom=0;sketch=1;" parent="zX09XY9HpGyqSqZ4T9dv-1" vertex="1">
                    <mxGeometry x="436" y="142" width="174" height="112" as="geometry"/>
                </mxCell>
                <mxCell id="zX09XY9HpGyqSqZ4T9dv-19" value="- damage: number" style="text;strokeColor=none;fillColor=none;align=left;verticalAlign=top;spacingLeft=4;spacingRight=4;overflow=hidden;rotatable=0;points=[[0,0.5],[1,0.5]];portConstraint=eastwest;sketch=1;" parent="zX09XY9HpGyqSqZ4T9dv-18" vertex="1">
                    <mxGeometry y="26" width="174" height="26" as="geometry"/>
                </mxCell>
                <mxCell id="zX09XY9HpGyqSqZ4T9dv-20" value="" style="line;strokeWidth=1;fillColor=none;align=left;verticalAlign=middle;spacingTop=-1;spacingLeft=3;spacingRight=3;rotatable=0;labelPosition=right;points=[];portConstraint=eastwest;sketch=1;" parent="zX09XY9HpGyqSqZ4T9dv-18" vertex="1">
                    <mxGeometry y="52" width="174" height="8" as="geometry"/>
                </mxCell>
                <mxCell id="IeATak3uWCZ_7LjqJvaZ-1" value="+ Cartridge762(dmg: number)" style="text;strokeColor=none;fillColor=none;align=left;verticalAlign=top;spacingLeft=4;spacingRight=4;overflow=hidden;rotatable=0;points=[[0,0.5],[1,0.5]];portConstraint=eastwest;sketch=1;" vertex="1" parent="zX09XY9HpGyqSqZ4T9dv-18">
                    <mxGeometry y="60" width="174" height="26" as="geometry"/>
                </mxCell>
                <mxCell id="zX09XY9HpGyqSqZ4T9dv-21" value="+ fireHighCaliber()" style="text;strokeColor=none;fillColor=none;align=left;verticalAlign=top;spacingLeft=4;spacingRight=4;overflow=hidden;rotatable=0;points=[[0,0.5],[1,0.5]];portConstraint=eastwest;sketch=1;" parent="zX09XY9HpGyqSqZ4T9dv-18" vertex="1">
                    <mxGeometry y="86" width="174" height="26" as="geometry"/>
                </mxCell>
                <mxCell id="zX09XY9HpGyqSqZ4T9dv-24" style="edgeStyle=none;sketch=1;html=1;exitX=0.5;exitY=1;exitDx=0;exitDy=0;startArrow=none;startFill=0;endArrow=open;endFill=0;" parent="zX09XY9HpGyqSqZ4T9dv-1" source="zX09XY9HpGyqSqZ4T9dv-23" target="zX09XY9HpGyqSqZ4T9dv-11" edge="1">
                    <mxGeometry relative="1" as="geometry"/>
                </mxCell>
                <mxCell id="zX09XY9HpGyqSqZ4T9dv-23" value="Client" style="html=1;sketch=1;fontStyle=1" parent="zX09XY9HpGyqSqZ4T9dv-1" vertex="1">
                    <mxGeometry x="211" y="41" width="110" height="50" as="geometry"/>
                </mxCell>
            </root>
        </mxGraphModel>
    </diagram>
</mxfile>